<?xml version="1.0" encoding="UTF-8" standalone="no"?>
<svg
   xmlns:dc="http://purl.org/dc/elements/1.1/"
   xmlns:cc="http://creativecommons.org/ns#"
   xmlns:rdf="http://www.w3.org/1999/02/22-rdf-syntax-ns#"
   xmlns:svg="http://www.w3.org/2000/svg"
   xmlns="http://www.w3.org/2000/svg"
   version="1.1"
   id="svg6169"
   viewBox="0 0 283.46457 148.81889"
   height="42mm"
   width="80mm">
  <defs
     id="defs6171" />
  <metadata
     id="metadata6174">
    <rdf:RDF>
      <cc:Work
         rdf:about="">
        <dc:format>image/svg+xml</dc:format>
        <dc:type
           rdf:resource="http://purl.org/dc/dcmitype/StillImage" />
        <dc:title></dc:title>
      </cc:Work>
    </rdf:RDF>
  </metadata>
  <g
     transform="translate(0,-903.5433)"
     id="layer1">
    <g
       id="g5976"
       transform="matrix(1.25,0,0,-1.25,-131.55912,2673.062)">
      <g
         id="g3790"
         transform="translate(169.5194,1297.8447)">
        <path
           d="m 0,0 0,3.842 c 0,0.045 0.017,0.08 0.051,0.104 0.034,0.025 0.074,0.036 0.118,0.036 l 2.012,0 C 2.275,3.982 2.322,3.928 2.322,3.819 2.322,3.771 2.31,3.728 2.285,3.692 2.261,3.656 2.226,3.639 2.181,3.639 l -1.808,0 0,-1.554 0.887,0 C 1.305,2.085 1.34,2.068 1.364,2.037 1.389,2.005 1.401,1.964 1.401,1.915 1.401,1.813 1.354,1.763 1.26,1.763 l -0.887,0 0,-1.565 1.808,0 c 0.041,0 0.075,-0.017 0.101,-0.051 0.027,-0.034 0.04,-0.075 0.04,-0.124 0,-0.113 -0.047,-0.169 -0.141,-0.169 l -2.012,0 c -0.044,0 -0.084,0.012 -0.118,0.039 C 0.017,-0.081 0,-0.045 0,0"
           style="fill:#231f20;fill-opacity:1;fill-rule:nonzero;stroke:none"
           id="path3792" />
      </g>
      <g
         id="g3794"
         transform="translate(176.1171,1298.2627)">
        <path
           d="m 0,0 c 0,0.046 0.018,0.092 0.054,0.139 0.036,0.047 0.074,0.07 0.116,0.07 0.03,0 0.067,-0.024 0.113,-0.073 l 0.158,-0.163 c 0.057,-0.061 0.146,-0.115 0.268,-0.161 0.123,-0.048 0.265,-0.072 0.427,-0.072 0.267,0 0.474,0.068 0.621,0.201 0.147,0.134 0.221,0.327 0.221,0.58 0,0.168 -0.036,0.313 -0.105,0.431 C 1.803,1.071 1.714,1.162 1.604,1.227 1.499,1.294 1.378,1.354 1.243,1.407 L 0.836,1.565 C 0.701,1.618 0.579,1.681 0.472,1.755 0.365,1.828 0.276,1.932 0.207,2.065 0.137,2.199 0.102,2.357 0.102,2.542 c 0,0.197 0.037,0.367 0.11,0.509 C 0.286,3.192 0.384,3.3 0.509,3.372 0.633,3.443 0.76,3.496 0.89,3.528 1.02,3.56 1.156,3.576 1.299,3.576 1.529,3.576 1.745,3.543 1.946,3.478 2.147,3.411 2.249,3.329 2.249,3.231 2.249,3.187 2.232,3.141 2.201,3.093 2.168,3.046 2.13,3.022 2.084,3.022 2.062,3.022 2.019,3.04 1.955,3.075 1.891,3.109 1.801,3.145 1.687,3.18 1.571,3.214 1.441,3.231 1.294,3.231 1.057,3.231 0.861,3.181 0.707,3.079 0.552,2.978 0.475,2.81 0.475,2.576 0.475,2.414 0.521,2.278 0.613,2.17 0.706,2.061 0.821,1.981 0.96,1.933 1.1,1.884 1.25,1.825 1.413,1.757 1.574,1.689 1.725,1.617 1.864,1.54 2.003,1.463 2.12,1.34 2.212,1.173 2.304,1.005 2.35,0.799 2.35,0.554 c 0,-0.386 -0.107,-0.675 -0.322,-0.868 -0.215,-0.194 -0.505,-0.29 -0.87,-0.29 -0.327,0 -0.602,0.07 -0.825,0.209 C 0.111,-0.254 0,-0.123 0,0"
           style="fill:#231f20;fill-opacity:1;fill-rule:nonzero;stroke:none"
           id="path3796" />
      </g>
      <g
         id="g3798"
         transform="translate(182.7435,1301.6553)">
        <path
           d="m 0,0 c 0,0.045 0.012,0.084 0.037,0.119 0.024,0.035 0.059,0.053 0.104,0.053 l 2.265,0 c 0.045,0 0.08,-0.017 0.105,-0.05 C 2.535,0.089 2.547,0.05 2.547,0.006 2.547,-0.043 2.535,-0.084 2.511,-0.119 2.486,-0.154 2.451,-0.172 2.406,-0.172 l -0.943,0 0,-3.638 c 0,-0.045 -0.019,-0.081 -0.057,-0.108 -0.037,-0.026 -0.081,-0.039 -0.13,-0.039 -0.052,0 -0.097,0.013 -0.132,0.039 C 1.108,-3.891 1.09,-3.855 1.09,-3.81 l 0,3.638 -0.949,0 C 0.1,-0.172 0.065,-0.155 0.04,-0.122 0.013,-0.089 0,-0.048 0,0"
           style="fill:#231f20;fill-opacity:1;fill-rule:nonzero;stroke:none"
           id="path3800" />
      </g>
      <g
         id="g3802"
         transform="translate(189.8548,1298.9863)">
        <path
           d="M 0,0 1.367,0 0.686,2.281 0,0 Z m -0.723,-1.13 c 0,0.019 0.002,0.032 0.006,0.039 l 1.181,3.836 c 0.026,0.087 0.099,0.13 0.219,0.13 0.119,0 0.194,-0.043 0.224,-0.131 L 2.085,-1.1 c 0,-0.004 10e-4,-0.009 0.002,-0.016 0.002,-0.007 0.003,-0.013 0.003,-0.016 0,-0.043 -0.024,-0.08 -0.073,-0.11 -0.049,-0.03 -0.1,-0.046 -0.152,-0.046 -0.072,0 -0.119,0.032 -0.142,0.096 l -0.26,0.87 -1.56,0 -0.261,-0.87 c -0.016,-0.065 -0.065,-0.096 -0.148,-0.096 -0.054,0 -0.103,0.015 -0.148,0.045 -0.046,0.03 -0.069,0.068 -0.069,0.113"
           style="fill:#231f20;fill-opacity:1;fill-rule:nonzero;stroke:none"
           id="path3804" />
      </g>
      <g
         id="g3806"
         transform="translate(196.8148,1298.043)">
        <path
           d="M 0,0 0.819,0 C 1.346,0 1.61,0.278 1.61,0.836 l 0,0.096 c 0,0.535 -0.264,0.802 -0.791,0.802 L 0,1.734 0,0 Z m 0,2.056 0.74,0 c 0.267,0 0.462,0.055 0.585,0.167 C 1.447,2.334 1.508,2.521 1.508,2.785 1.508,3.029 1.44,3.2 1.305,3.296 1.169,3.392 0.974,3.44 0.717,3.44 L 0,3.44 0,2.056 Z m -0.367,-2.259 0,3.847 c 0,0.044 0.017,0.08 0.051,0.104 0.034,0.024 0.073,0.036 0.118,0.036 l 0.927,0 C 0.902,3.784 1.053,3.771 1.181,3.745 1.309,3.719 1.428,3.672 1.54,3.604 1.65,3.536 1.735,3.438 1.793,3.308 1.852,3.178 1.881,3.017 1.881,2.824 1.881,2.591 1.838,2.393 1.751,2.231 1.665,2.069 1.548,1.956 1.401,1.893 1.589,1.816 1.733,1.704 1.833,1.554 1.933,1.402 1.983,1.191 1.983,0.921 l 0,-0.102 C 1.983,0.412 1.881,0.116 1.678,-0.068 1.475,-0.253 1.203,-0.345 0.864,-0.345 l -1.062,0 c -0.052,0 -0.094,0.014 -0.124,0.042 -0.03,0.029 -0.045,0.062 -0.045,0.1"
           style="fill:#231f20;fill-opacity:1;fill-rule:nonzero;stroke:none"
           id="path3808" />
      </g>
      <g
         id="g3810"
         transform="translate(203.4408,1297.8447)">
        <path
           d="m 0,0 0,3.848 c 0,0.09 0.062,0.134 0.187,0.134 0.124,0 0.186,-0.044 0.186,-0.134 l 0,-3.65 1.61,0 c 0.082,0 0.124,-0.056 0.124,-0.17 0,-0.116 -0.042,-0.174 -0.124,-0.174 l -1.814,0 c -0.044,0 -0.084,0.012 -0.118,0.039 C 0.017,-0.081 0,-0.045 0,0"
           style="fill:#231f20;fill-opacity:1;fill-rule:nonzero;stroke:none"
           id="path3812" />
      </g>
      <g
         id="g3814"
         transform="translate(210.0106,1297.8447)">
        <path
           d="m 0,0 0,3.848 c 0,0.09 0.062,0.134 0.187,0.134 0.124,0 0.186,-0.044 0.186,-0.134 L 0.373,0 c 0,-0.045 -0.019,-0.081 -0.057,-0.107 -0.037,-0.027 -0.081,-0.039 -0.129,-0.039 -0.053,0 -0.098,0.012 -0.133,0.039 C 0.018,-0.081 0,-0.045 0,0"
           style="fill:#231f20;fill-opacity:1;fill-rule:nonzero;stroke:none"
           id="path3816" />
      </g>
      <g
         id="g3818"
         transform="translate(214.9701,1298.2627)">
        <path
           d="m 0,0 c 0,0.046 0.018,0.092 0.054,0.139 0.036,0.047 0.074,0.07 0.116,0.07 0.03,0 0.067,-0.024 0.113,-0.073 l 0.158,-0.163 c 0.057,-0.061 0.146,-0.115 0.268,-0.161 0.123,-0.048 0.265,-0.072 0.427,-0.072 0.267,0 0.474,0.068 0.621,0.201 0.147,0.134 0.221,0.327 0.221,0.58 0,0.168 -0.036,0.313 -0.105,0.431 C 1.803,1.071 1.714,1.162 1.604,1.227 1.499,1.294 1.378,1.354 1.243,1.407 L 0.836,1.565 C 0.701,1.618 0.579,1.681 0.472,1.755 0.365,1.828 0.276,1.932 0.207,2.065 0.137,2.199 0.102,2.357 0.102,2.542 c 0,0.197 0.037,0.367 0.11,0.509 C 0.286,3.192 0.384,3.3 0.509,3.372 0.633,3.443 0.76,3.496 0.89,3.528 1.02,3.56 1.156,3.576 1.299,3.576 1.529,3.576 1.745,3.543 1.946,3.478 2.147,3.411 2.249,3.329 2.249,3.231 2.249,3.187 2.232,3.141 2.201,3.093 2.168,3.046 2.13,3.022 2.084,3.022 2.062,3.022 2.019,3.04 1.955,3.075 1.891,3.109 1.801,3.145 1.687,3.18 1.571,3.214 1.441,3.231 1.294,3.231 1.057,3.231 0.861,3.181 0.707,3.079 0.552,2.978 0.475,2.81 0.475,2.576 0.475,2.414 0.521,2.278 0.613,2.17 0.706,2.061 0.821,1.981 0.96,1.933 1.1,1.884 1.25,1.825 1.413,1.757 1.574,1.689 1.725,1.617 1.864,1.54 2.003,1.463 2.12,1.34 2.212,1.173 2.304,1.005 2.35,0.799 2.35,0.554 c 0,-0.386 -0.107,-0.675 -0.322,-0.868 -0.215,-0.194 -0.505,-0.29 -0.87,-0.29 -0.327,0 -0.602,0.07 -0.825,0.209 C 0.111,-0.254 0,-0.123 0,0"
           style="fill:#231f20;fill-opacity:1;fill-rule:nonzero;stroke:none"
           id="path3820" />
      </g>
      <g
         id="g3822"
         transform="translate(221.9408,1297.8447)">
        <path
           d="m 0,0 0,3.848 c 0,0.09 0.062,0.134 0.187,0.134 0.124,0 0.186,-0.044 0.186,-0.134 l 0,-1.69 1.632,0 0,1.69 c 0,0.09 0.062,0.134 0.187,0.134 0.124,0 0.186,-0.044 0.186,-0.134 L 2.378,0 c 0,-0.045 -0.019,-0.081 -0.056,-0.107 -0.038,-0.027 -0.081,-0.039 -0.13,-0.039 -0.053,0 -0.097,0.012 -0.133,0.039 C 2.023,-0.081 2.005,-0.045 2.005,0 l 0,1.836 -1.632,0 0,-1.836 c 0,-0.045 -0.019,-0.081 -0.057,-0.107 -0.037,-0.027 -0.081,-0.039 -0.129,-0.039 -0.053,0 -0.098,0.012 -0.133,0.039 C 0.018,-0.081 0,-0.045 0,0"
           style="fill:#231f20;fill-opacity:1;fill-rule:nonzero;stroke:none"
           id="path3824" />
      </g>
      <g
         id="g3826"
         transform="translate(229.1317,1297.8447)">
        <path
           d="m 0,0 0,3.842 c 0,0.045 0.017,0.08 0.051,0.104 0.034,0.025 0.074,0.036 0.118,0.036 l 2.012,0 C 2.275,3.982 2.322,3.928 2.322,3.819 2.322,3.771 2.31,3.728 2.285,3.692 2.261,3.656 2.226,3.639 2.181,3.639 l -1.808,0 0,-1.554 0.887,0 C 1.305,2.085 1.34,2.068 1.364,2.037 1.389,2.005 1.401,1.964 1.401,1.915 1.401,1.813 1.354,1.763 1.26,1.763 l -0.887,0 0,-1.565 1.808,0 c 0.041,0 0.075,-0.017 0.101,-0.051 0.027,-0.034 0.04,-0.075 0.04,-0.124 0,-0.113 -0.047,-0.169 -0.141,-0.169 l -2.012,0 c -0.044,0 -0.084,0.012 -0.118,0.039 C 0.017,-0.081 0,-0.045 0,0"
           style="fill:#231f20;fill-opacity:1;fill-rule:nonzero;stroke:none"
           id="path3828" />
      </g>
      <g
         id="g3830"
         transform="translate(236.3285,1298.043)">
        <path
           d="m 0,0 0.796,0 c 0.256,0 0.455,0.072 0.597,0.218 0.141,0.144 0.211,0.36 0.211,0.646 l 0,1.717 c 0,0.286 -0.07,0.501 -0.211,0.645 C 1.251,3.368 1.052,3.44 0.796,3.44 L 0,3.44 0,0 Z m -0.373,-0.203 0,3.852 c 0,0.038 0.016,0.07 0.048,0.096 0.032,0.026 0.073,0.039 0.121,0.039 l 1,0 C 1.154,3.784 1.44,3.688 1.655,3.494 1.87,3.3 1.977,2.996 1.977,2.581 l 0,-1.717 C 1.977,0.446 1.87,0.14 1.655,-0.054 1.44,-0.248 1.154,-0.345 0.796,-0.345 l -1,0 c -0.048,0 -0.089,0.014 -0.121,0.042 -0.032,0.029 -0.048,0.062 -0.048,0.1"
           style="fill:#231f20;fill-opacity:1;fill-rule:nonzero;stroke:none"
           id="path3832" />
      </g>
      <g
         id="g3834"
         transform="translate(247.9198,1297.8457)">
        <path
           d="m 0,0 0,0.548 c 0,0.174 0.065,0.342 0.195,0.504 0.13,0.162 0.287,0.31 0.472,0.446 L 1.223,1.9 c 0.19,0.136 0.35,0.289 0.483,0.461 0.131,0.172 0.198,0.348 0.198,0.53 0,0.196 -0.067,0.369 -0.201,0.52 C 1.568,3.562 1.38,3.638 1.138,3.638 0.934,3.638 0.769,3.579 0.642,3.464 0.515,3.348 0.452,3.183 0.452,2.966 0.452,2.925 0.434,2.889 0.398,2.858 0.363,2.828 0.314,2.813 0.254,2.813 c -0.112,0 -0.169,0.077 -0.169,0.231 0,0.271 0.102,0.495 0.306,0.673 0.204,0.177 0.457,0.264 0.758,0.264 0.325,0 0.594,-0.102 0.808,-0.308 C 2.17,3.466 2.277,3.209 2.277,2.901 2.277,2.713 2.229,2.532 2.135,2.358 2.041,2.185 1.924,2.038 1.784,1.917 1.645,1.796 1.492,1.674 1.326,1.55 L 0.866,1.222 C 0.726,1.127 0.609,1.021 0.515,0.901 0.42,0.783 0.373,0.665 0.373,0.548 l 0,-0.351 1.807,0 C 2.218,0.197 2.25,0.18 2.276,0.146 2.303,0.112 2.316,0.073 2.316,0.027 2.316,-0.018 2.303,-0.058 2.277,-0.094 2.25,-0.13 2.218,-0.147 2.181,-0.147 l -2.006,0 c -0.042,0 -0.081,0.013 -0.118,0.042 C 0.019,-0.077 0,-0.042 0,0"
           style="fill:#231f20;fill-opacity:1;fill-rule:nonzero;stroke:none"
           id="path3836" />
      </g>
      <g
         id="g3838"
         transform="translate(255.6644,1299.752)">
        <path
           d="m 0,0 c 0,0.058 0.018,0.104 0.054,0.141 0.035,0.036 0.08,0.053 0.135,0.053 0.051,0 0.094,-0.017 0.13,-0.053 C 0.355,0.104 0.373,0.058 0.373,0 0.373,-0.055 0.355,-0.102 0.319,-0.142 0.283,-0.181 0.24,-0.201 0.189,-0.201 c -0.055,0 -0.1,0.02 -0.135,0.059 C 0.018,-0.102 0,-0.055 0,0 m -0.599,-0.879 c 0,-0.576 0.262,-0.864 0.786,-0.864 0.523,0 0.785,0.288 0.785,0.864 l 0,1.751 c 0,0.572 -0.262,0.859 -0.785,0.859 -0.524,0 -0.786,-0.287 -0.786,-0.859 l 0,-1.751 z m -0.373,0 0,1.751 c 0,0.415 0.107,0.719 0.32,0.913 0.212,0.194 0.491,0.29 0.837,0.29 0.346,0 0.625,-0.096 0.839,-0.29 0.213,-0.194 0.32,-0.498 0.32,-0.913 l 0,-1.751 c 0,-0.418 -0.107,-0.724 -0.32,-0.918 C 0.81,-1.99 0.531,-2.088 0.185,-2.088 c -0.346,0 -0.625,0.098 -0.837,0.291 -0.213,0.194 -0.32,0.5 -0.32,0.918"
           style="fill:#231f20;fill-opacity:1;fill-rule:nonzero;stroke:none"
           id="path3840" />
      </g>
      <g
         id="g3842"
         transform="translate(261.3978,1300.9238)">
        <path
           d="M 0,0 C 0,0.063 0.028,0.12 0.085,0.169 L 0.548,0.824 C 0.589,0.881 0.637,0.909 0.689,0.909 0.731,0.909 0.769,0.896 0.802,0.87 0.836,0.844 0.853,0.81 0.853,0.769 l 0,-3.848 C 0.853,-3.124 0.834,-3.16 0.797,-3.187 0.759,-3.213 0.716,-3.226 0.667,-3.226 0.614,-3.226 0.57,-3.213 0.534,-3.187 0.498,-3.16 0.48,-3.124 0.48,-3.079 l 0,3.35 -0.226,-0.367 C 0.224,-0.142 0.188,-0.164 0.147,-0.164 0.105,-0.164 0.071,-0.147 0.042,-0.116 0.014,-0.084 0,-0.045 0,0"
           style="fill:#231f20;fill-opacity:1;fill-rule:nonzero;stroke:none"
           id="path3844" />
      </g>
      <g
         id="g3846"
         transform="translate(266.6405,1298.8291)">
        <path
           d="M 0,0 C 0,0.037 0.007,0.069 0.022,0.096 L 1.44,2.886 C 1.478,2.961 1.536,2.998 1.615,2.998 1.657,2.998 1.697,2.983 1.737,2.953 1.776,2.923 1.796,2.888 1.796,2.846 1.796,2.823 1.791,2.799 1.779,2.772 l -1.305,-2.576 1.108,0 0,1.101 c 0,0.095 0.062,0.142 0.186,0.142 0.049,0 0.092,-0.012 0.13,-0.037 C 1.936,1.378 1.954,1.343 1.954,1.297 l 0,-1.101 0.311,0 C 2.31,0.196 2.345,0.18 2.37,0.145 2.394,0.11 2.406,0.071 2.406,0.027 2.406,-0.021 2.393,-0.062 2.367,-0.096 2.34,-0.131 2.306,-0.148 2.265,-0.148 l -0.311,0 0,-0.834 c 0,-0.046 -0.018,-0.082 -0.056,-0.109 -0.038,-0.026 -0.081,-0.04 -0.13,-0.04 -0.053,0 -0.097,0.014 -0.133,0.04 -0.036,0.027 -0.053,0.063 -0.053,0.109 l 0,0.834 -1.436,0 C 0.049,-0.148 0,-0.099 0,0"
           style="fill:#231f20;fill-opacity:1;fill-rule:nonzero;stroke:none"
           id="path3848" />
      </g>
      <g
         id="g3850"
         transform="translate(161.7474,1383.0015)">
        <path
           d="M 0,0 1.002,-4.625 2.005,-9.266 C 2.065,-9.546 1.888,-9.822 1.608,-9.881 1.572,-9.889 1.535,-9.895 1.497,-9.895 l -2.005,0 -2.011,0 c -0.285,0 -0.521,0.232 -0.521,0.522 0,0.042 0.01,0.09 0.02,0.133 l 0.999,4.615 1.004,4.638 C -0.959,0.291 -0.681,0.47 -0.401,0.408 -0.19,0.364 -0.041,0.198 0,0"
           style="fill:#393536;fill-opacity:1;fill-rule:nonzero;stroke:none"
           id="path3852" />
      </g>
      <g
         id="g3854"
         transform="translate(147.1747,1391.2627)">
        <path
           d="M 0,0 -0.008,0.009 0.128,0.097 C 0.135,0.103 0.141,0.104 0.15,0.109 l 13.128,8.746 c 0.489,0.326 1.124,0.314 1.6,-0.021 L 28.013,0.087 c 0.256,-0.172 0.451,-0.421 0.554,-0.712 l 5.556,-15.688 c 0.255,-0.74 -0.132,-1.552 -0.874,-1.815 -0.741,-0.259 -1.554,0.129 -1.813,0.869 l -5.39,15.241 -11.982,7.98 -11.981,-7.98 -5.396,-15.241 c -0.263,-0.74 -1.074,-1.128 -1.813,-0.869 -0.741,0.263 -1.132,1.075 -0.869,1.815 l 5.551,15.688 C -0.355,-0.379 -0.205,-0.16 0,0"
           style="fill:#f15030;fill-opacity:1;fill-rule:evenodd;stroke:none"
           id="path3856" />
      </g>
      <path
         d="m 160.32,1409.468 1.833,0 0,-9.515 -1.833,0 0,9.515 z"
         style="fill:#f15030;fill-opacity:1;fill-rule:nonzero;stroke:none"
         id="path3858" />
      <g
         id="g3860"
         transform="translate(170.2306,1408.1343)">
        <path
           d="m 0,0 -4.628,-1.002 -4.639,-1.004 c -0.278,-0.062 -0.553,0.114 -0.616,0.398 -0.008,0.037 -0.012,0.072 -0.012,0.108 l 0,2.008 0,2.008 c 0,0.287 0.232,0.521 0.517,0.521 0.051,0 0.096,-0.008 0.136,-0.018 l 4.614,-1 4.64,-1.002 C 0.29,0.958 0.47,0.681 0.408,0.4 0.363,0.19 0.198,0.039 0,0"
           style="fill:#f15030;fill-opacity:1;fill-rule:nonzero;stroke:none"
           id="path3862" />
      </g>
      <g
         id="g3864"
         transform="translate(217.4121,1349.8744)">
        <path
           d="m 0,0 0,0 17.623,-6.221 0.231,1.425 2.316,-3.557 -4.153,-0.878 0.844,1.172 L 0,0 Z"
           style="fill:#f8a70d;fill-opacity:1;fill-rule:nonzero;stroke:none"
           id="path3866" />
      </g>
      <g
         id="g3868"
         transform="translate(271.992,1327.2701)">
        <path
           d="m 0,0 -17.927,6.346 -0.232,-1.423 -2.316,3.557 4.153,0.876 -0.843,-1.17 L 0,0 Z"
           style="fill:#f8a70d;fill-opacity:1;fill-rule:nonzero;stroke:none"
           id="path3870" />
      </g>
      <g
         id="g3872"
         transform="translate(233.1826,1311.193)">
        <path
           d="M 0,0 0,0 6.348,17.926 4.923,18.157 8.48,20.475 9.359,16.322 8.186,17.165 0,0 Z"
           style="fill:#f8a70d;fill-opacity:1;fill-rule:nonzero;stroke:none"
           id="path3874" />
      </g>
      <g
         id="g3876"
         transform="translate(255.9163,1366.0775)">
        <path
           d="m 0,0 0,0 -6.347,-17.926 1.423,-0.233 -3.557,-2.316 -0.877,4.152 1.171,-0.842 L 0,0 Z"
           style="fill:#f8a70d;fill-opacity:1;fill-rule:nonzero;stroke:none"
           id="path3878" />
      </g>
      <g
         id="g3880"
         transform="translate(217.4136,1327.2672)">
        <path
           d="M 0,0 0,0 16.859,8.062 16.015,9.233 20.168,8.355 17.854,4.798 17.62,6.224 0,0 Z"
           style="fill:#f8a70d;fill-opacity:1;fill-rule:nonzero;stroke:none"
           id="path3882" />
      </g>
      <g
         id="g3884"
         transform="translate(271.992,1349.8757)">
        <path
           d="m 0,0 -17.165,-8.188 0.843,-1.171 -4.153,0.878 2.315,3.557 0.233,-1.423 L 0,0 Z"
           style="fill:#f8a70d;fill-opacity:1;fill-rule:nonzero;stroke:none"
           id="path3886" />
      </g>
      <g
         id="g3888"
         transform="translate(255.9169,1311.067)">
        <path
           d="m 0,0 0,0 -8.187,17.164 -1.174,-0.842 0.879,4.15 3.558,-2.313 L -6.35,17.926 0,0 Z"
           style="fill:#f8a70d;fill-opacity:1;fill-rule:nonzero;stroke:none"
           id="path3890" />
      </g>
      <g
         id="g3892"
         transform="translate(233.1826,1365.9501)">
        <path
           d="m 0,0 0,0 8.187,-17.164 1.17,0.843 -0.877,-4.154 -3.555,2.318 1.423,0.231 L 0,0 Z"
           style="fill:#f8a70d;fill-opacity:1;fill-rule:nonzero;stroke:none"
           id="path3894" />
      </g>
      <g
         id="g3896"
         transform="translate(244.5483,1330.9673)">
        <path
           d="m 0,0 0,0 -0.995,-11.383 -1.406,0.33 2.4,-3.501 2.402,3.501 -1.406,-0.33 L 0,0 Z"
           style="fill:#f8a70d;fill-opacity:1;fill-rule:nonzero;stroke:none"
           id="path3898" />
      </g>
      <g
         id="g3900"
         transform="translate(244.5487,1346.05)">
        <path
           d="m 0,0 0,0 0.996,11.384 1.403,-0.33 -2.399,3.5 -2.399,-3.5 1.404,0.33 L 0,0 Z"
           style="fill:#f8a70d;fill-opacity:1;fill-rule:nonzero;stroke:none"
           id="path3902" />
      </g>
      <g
         id="g3904"
         transform="translate(252.0906,1338.5084)">
        <path
           d="M 0,0 0,0 11.381,-0.995 11.052,-2.4 14.553,0 11.051,2.4 11.381,0.995 0,0 Z"
           style="fill:#f8a70d;fill-opacity:1;fill-rule:nonzero;stroke:none"
           id="path3906" />
      </g>
      <g
         id="g3908"
         transform="translate(237.0072,1338.5084)">
        <path
           d="m 0,0 0,0 -11.384,0.995 0.331,1.406 -3.501,-2.401 3.499,-2.4 -0.33,1.407 L 0,0 Z"
           style="fill:#f8a70d;fill-opacity:1;fill-rule:nonzero;stroke:none"
           id="path3910" />
      </g>
      <g
         id="g3912"
         transform="translate(249.8811,1333.1753)">
        <path
           d="M 0,0 0,0 7.346,-8.753 6.118,-9.514 10.291,-10.291 9.513,-6.117 8.752,-7.345 0,0 Z"
           style="fill:#f8a70d;fill-opacity:1;fill-rule:nonzero;stroke:none"
           id="path3914" />
      </g>
      <g
         id="g3916"
         transform="translate(239.2157,1343.8414)">
        <path
           d="m 0,0 0,0 -7.344,8.753 1.226,0.759 -4.172,0.78 L -9.512,6.12 -8.753,7.346 0,0 Z"
           style="fill:#f8a70d;fill-opacity:1;fill-rule:nonzero;stroke:none"
           id="path3918" />
      </g>
      <g
         id="g3920"
         transform="translate(249.8811,1343.8414)">
        <path
           d="M 0,0 0,0 8.751,7.343 9.513,6.118 10.291,10.29 6.118,9.512 7.345,8.752 0,0 Z"
           style="fill:#f8a70d;fill-opacity:1;fill-rule:nonzero;stroke:none"
           id="path3922" />
      </g>
      <g
         id="g3924"
         transform="translate(239.2149,1333.1759)">
        <path
           d="m 0,0 0,0 -8.753,-7.346 -0.759,1.228 -0.778,-4.173 4.171,0.778 -1.228,0.76 L 0,0 Z"
           style="fill:#f8a70d;fill-opacity:1;fill-rule:nonzero;stroke:none"
           id="path3926" />
      </g>
      <g
         id="g3928"
         transform="translate(123.0171,1410.705)">
        <path
           d="M 0,0 C 0.466,0 0.875,-0.175 1.225,-0.525 1.575,-0.875 1.75,-1.284 1.75,-1.75 l 0,-33.7 c 0,-0.467 -0.175,-0.875 -0.525,-1.225 C 0.875,-37.025 0.466,-37.2 0,-37.2 c -0.5,0 -0.925,0.175 -1.275,0.525 -0.35,0.35 -0.525,0.758 -0.525,1.225 l 0,13 -10.5,0 0,-13 c 0,-0.467 -0.175,-0.875 -0.525,-1.225 -0.35,-0.35 -0.775,-0.525 -1.275,-0.525 -0.467,0 -0.875,0.175 -1.225,0.525 -0.35,0.35 -0.525,0.758 -0.525,1.225 l 0,33.7 c 0,0.466 0.175,0.875 0.525,1.225 0.35,0.35 0.758,0.525 1.225,0.525 0.5,0 0.925,-0.175 1.275,-0.525 0.35,-0.35 0.525,-0.759 0.525,-1.225 l 0,-17.15 10.5,0 0,17.15 c 0,0.466 0.175,0.875 0.525,1.225 C -0.925,-0.175 -0.5,0 0,0"
           style="fill:#231f20;fill-opacity:1;fill-rule:nonzero;stroke:none"
           id="path3930" />
      </g>
      <g
         id="g3932"
         transform="translate(206.4324,1373.4047)">
        <path
           d="M 0,0 C -2.5,0 -4.467,0.8 -5.9,2.4 -6.467,2.966 -6.917,3.65 -7.25,4.45 -7.584,5.25 -7.834,6.133 -8,7.1 -8.1,7.7 -8.15,8.216 -8.15,8.65 l 0,0.9 0,19.25 c 0,1.533 0.241,2.867 0.725,4 0.483,1.133 1.108,2.067 1.875,2.8 0.766,0.733 1.633,1.275 2.6,1.625 0.966,0.35 1.932,0.525 2.9,0.525 0.6,0 1.425,-0.117 2.475,-0.35 1.05,-0.233 2.057,-0.783 3.025,-1.65 0.666,-0.567 1.308,-1.4 1.925,-2.5 C 7.991,32.15 8.3,30.667 8.3,28.8 8.3,28.3 8.125,27.875 7.775,27.525 7.425,27.175 7,27 6.5,27 6,27 5.575,27.175 5.225,27.525 4.875,27.875 4.7,28.3 4.7,28.8 c 0,1.233 -0.192,2.208 -0.575,2.925 -0.384,0.716 -0.842,1.25 -1.375,1.6 C 2.216,33.675 1.691,33.9 1.175,34 0.658,34.1 0.25,34.15 -0.05,34.15 c -0.567,0 -1.109,-0.1 -1.625,-0.3 C -2.192,33.65 -2.634,33.367 -3,33 -4.034,32.066 -4.55,30.667 -4.55,28.8 l 0,-19.35 0,-0.15 0,-0.525 c 0,-0.317 0.032,-0.7 0.1,-1.15 0.066,-0.45 0.191,-0.934 0.375,-1.45 C -3.893,5.658 -3.617,5.2 -3.25,4.8 -2.518,4 -1.434,3.6 0,3.6 c 1.5,0 2.616,0.417 3.35,1.25 0.366,0.4 0.641,0.833 0.825,1.3 0.182,0.467 0.316,0.916 0.4,1.35 C 4.658,7.933 4.7,8.45 4.7,9.05 4.666,9.55 4.816,9.983 5.15,10.35 5.482,10.716 5.9,10.917 6.4,10.95 6.866,10.983 7.291,10.833 7.675,10.5 8.058,10.167 8.266,9.767 8.3,9.3 l 0,-0.75 C 8.3,8.117 8.232,7.566 8.1,6.9 7.8,5.033 7.1,3.533 6,2.4 4.5,0.8 2.5,0 0,0"
           style="fill:#231f20;fill-opacity:1;fill-rule:nonzero;stroke:none"
           id="path3934" />
      </g>
      <g
         id="g3936"
         transform="translate(255.2707,1375.08)">
        <path
           d="m 0,0 c -0.15,-0.45 -0.442,-0.792 -0.875,-1.025 -0.233,-0.134 -0.5,-0.2 -0.8,-0.2 -0.334,0 -0.642,0.082 -0.925,0.25 -0.284,0.166 -0.508,0.4 -0.675,0.7 l -8.55,16.95 -3.7,-6.05 0,-10.25 c 0,-0.5 -0.175,-0.917 -0.525,-1.25 -0.35,-0.334 -0.775,-0.5 -1.275,-0.5 -0.467,0 -0.875,0.166 -1.225,0.5 -0.35,0.333 -0.525,0.75 -0.525,1.25 l 0,10.75 0,0.05 0,22.75 c 0,0.5 0.175,0.925 0.525,1.275 0.35,0.35 0.758,0.525 1.225,0.525 0.5,0 0.925,-0.175 1.275,-0.525 0.35,-0.35 0.525,-0.775 0.525,-1.275 l 0,-16.55 10.7,17.4 c 0.266,0.433 0.633,0.707 1.1,0.825 0.466,0.116 0.916,0.041 1.35,-0.225 0.4,-0.268 0.658,-0.634 0.775,-1.1 0.117,-0.467 0.041,-0.918 -0.225,-1.35 l -7.85,-12.75 9.55,-18.85 C 0.108,0.891 0.15,0.45 0,0"
           style="fill:#231f20;fill-opacity:1;fill-rule:nonzero;stroke:none"
           id="path3938" />
      </g>
      <g
         id="g3940"
         transform="translate(292.947,1376.5297)">
        <path
           d="M 0,0 C 0.35,-0.35 0.525,-0.775 0.525,-1.275 0.525,-1.742 0.35,-2.15 0,-2.5 -0.35,-2.85 -0.775,-3.025 -1.275,-3.025 l -13.25,0 c -0.5,0 -0.925,0.175 -1.275,0.525 -0.35,0.35 -0.525,0.758 -0.525,1.225 l 0,33.7 c 0,0.467 0.175,0.875 0.525,1.225 0.35,0.35 0.775,0.525 1.275,0.525 l 13.25,0 C -0.775,34.175 -0.35,34 0,33.65 0.35,33.3 0.525,32.892 0.525,32.425 0.525,31.925 0.35,31.5 0,31.15 -0.35,30.8 -0.775,30.625 -1.275,30.625 l -11.5,0 0,-15.35 8.65,0 c 0.5,0 0.917,-0.175 1.25,-0.525 0.333,-0.35 0.5,-0.775 0.5,-1.275 0,-0.467 -0.167,-0.875 -0.5,-1.225 -0.333,-0.35 -0.75,-0.525 -1.25,-0.525 l -8.65,0 0,-11.2 11.5,0 C -0.775,0.525 -0.35,0.35 0,0"
           style="fill:#231f20;fill-opacity:1;fill-rule:nonzero;stroke:none"
           id="path3942" />
      </g>
      <g
         id="g3944"
         transform="translate(316.7856,1391.8046)">
        <path
           d="M 0,0 5.65,0 C 6.083,0 6.542,0.183 7.025,0.55 7.508,0.917 7.95,1.417 8.35,2.05 8.85,2.816 9.241,3.691 9.525,4.675 9.808,5.658 9.95,6.667 9.95,7.7 9.95,8.7 9.808,9.691 9.525,10.675 9.241,11.658 8.85,12.533 8.35,13.3 7.95,13.967 7.508,14.475 7.025,14.825 6.542,15.175 6.083,15.35 5.65,15.35 L 0,15.35 0,0 Z m 14.45,-15.85 c 0.2,-0.467 0.217,-0.925 0.05,-1.375 -0.167,-0.45 -0.483,-0.758 -0.95,-0.925 -0.133,-0.066 -0.258,-0.108 -0.375,-0.125 -0.117,-0.016 -0.225,-0.025 -0.325,-0.025 -0.367,0 -0.692,0.084 -0.975,0.25 -0.284,0.167 -0.509,0.433 -0.675,0.8 l -6,13.75 -5.2,0 0,-13.05 c 0,-0.5 -0.175,-0.917 -0.525,-1.25 -0.35,-0.333 -0.775,-0.5 -1.275,-0.5 -0.467,0 -0.875,0.167 -1.225,0.5 -0.35,0.333 -0.525,0.75 -0.525,1.25 l 0,33.65 c 0,0.5 0.175,0.925 0.525,1.275 0.35,0.35 0.758,0.525 1.225,0.525 l 7.45,0 c 1.066,0 2.091,-0.325 3.075,-0.975 0.983,-0.65 1.858,-1.558 2.625,-2.725 0.667,-1.067 1.183,-2.25 1.55,-3.55 0.367,-1.3 0.55,-2.617 0.55,-3.95 C 13.45,6.333 13.267,5 12.9,3.7 12.533,2.4 12.017,1.217 11.35,0.15 10.517,-1.117 9.616,-2.033 8.65,-2.6 l 5.8,-13.25 z"
           style="fill:#231f20;fill-opacity:1;fill-rule:nonzero;stroke:none"
           id="path3946" />
      </g>
      <g
         id="g3948"
         transform="translate(123.6421,1357.1796)">
        <path
           d="M 0,0 C 0.35,-0.35 0.525,-0.758 0.525,-1.225 0.525,-1.725 0.35,-2.15 0,-2.5 -0.35,-2.85 -0.775,-3.025 -1.275,-3.025 l -11.5,0 0,-15.35 8.65,0 c 0.5,0 0.917,-0.175 1.25,-0.525 0.333,-0.35 0.5,-0.775 0.5,-1.275 0,-0.467 -0.167,-0.875 -0.5,-1.225 -0.333,-0.35 -0.75,-0.525 -1.25,-0.525 l -8.65,0 0,-13 c 0,-0.467 -0.175,-0.875 -0.525,-1.225 -0.35,-0.35 -0.759,-0.525 -1.225,-0.525 -0.5,0 -0.925,0.175 -1.275,0.525 -0.35,0.35 -0.525,0.758 -0.525,1.225 l 0,33.7 c 0,0.467 0.175,0.875 0.525,1.225 0.35,0.35 0.775,0.525 1.275,0.525 l 13.25,0 C -0.775,0.525 -0.35,0.35 0,0"
           style="fill:#231f20;fill-opacity:1;fill-rule:nonzero;stroke:none"
           id="path3950" />
      </g>
      <g
         id="g3952"
         transform="translate(151.3447,1323.5297)">
        <path
           d="M 0,0 C 0.35,-0.35 0.525,-0.775 0.525,-1.275 0.525,-1.742 0.35,-2.15 0,-2.5 -0.35,-2.85 -0.775,-3.025 -1.275,-3.025 l -13.25,0 c -0.5,0 -0.925,0.175 -1.275,0.525 -0.35,0.35 -0.525,0.758 -0.525,1.225 l 0,33.7 c 0,0.467 0.175,0.875 0.525,1.225 0.35,0.35 0.775,0.525 1.275,0.525 l 13.25,0 C -0.775,34.175 -0.35,34 0,33.65 0.35,33.3 0.525,32.892 0.525,32.425 0.525,31.925 0.35,31.5 0,31.15 -0.35,30.8 -0.775,30.625 -1.275,30.625 l -11.5,0 0,-15.35 8.65,0 c 0.5,0 0.917,-0.175 1.25,-0.525 0.333,-0.35 0.5,-0.775 0.5,-1.275 0,-0.467 -0.167,-0.875 -0.5,-1.225 -0.333,-0.35 -0.75,-0.525 -1.25,-0.525 l -8.65,0 0,-11.2 11.5,0 C -0.775,0.525 -0.35,0.35 0,0"
           style="fill:#231f20;fill-opacity:1;fill-rule:nonzero;stroke:none"
           id="path3954" />
      </g>
      <g
         id="g3956"
         transform="translate(180.5224,1320.5048)">
        <path
           d="m 0,0 -13.3,0 c -0.467,0 -0.875,0.175 -1.225,0.525 -0.35,0.35 -0.525,0.758 -0.525,1.225 l 0,33.7 c 0,0.467 0.175,0.875 0.525,1.225 0.35,0.35 0.758,0.525 1.225,0.525 0.5,0 0.916,-0.175 1.25,-0.525 0.333,-0.35 0.5,-0.758 0.5,-1.225 l 0,-31.9 11.55,0 C 0.466,3.55 0.875,3.375 1.225,3.025 1.575,2.675 1.75,2.25 1.75,1.75 1.75,1.283 1.575,0.875 1.225,0.525 0.875,0.175 0.466,0 0,0"
           style="fill:#231f20;fill-opacity:1;fill-rule:nonzero;stroke:none"
           id="path3958" />
      </g>
      <g
         id="g3960"
         transform="translate(211.125,1320.5048)">
        <path
           d="m 0,0 -13.3,0 c -0.467,0 -0.875,0.175 -1.225,0.525 -0.35,0.35 -0.525,0.758 -0.525,1.225 l 0,33.7 c 0,0.467 0.175,0.875 0.525,1.225 0.35,0.35 0.758,0.525 1.225,0.525 0.5,0 0.916,-0.175 1.25,-0.525 0.333,-0.35 0.5,-0.758 0.5,-1.225 l 0,-31.9 11.55,0 C 0.466,3.55 0.875,3.375 1.225,3.025 1.575,2.675 1.75,2.25 1.75,1.75 1.75,1.283 1.575,0.875 1.225,0.525 0.875,0.175 0.466,0 0,0"
           style="fill:#231f20;fill-opacity:1;fill-rule:nonzero;stroke:none"
           id="path3962" />
      </g>
      <g
         id="g3964"
         transform="translate(297.333,1321.1049)">
        <path
           d="m 0,0 0,-0.05 c -0.134,-0.134 -0.25,-0.217 -0.35,-0.25 0,-0.033 -0.017,-0.05 -0.05,-0.05 l -0.05,-0.05 -0.05,0 -0.05,-0.05 -0.05,0 C -0.7,-0.483 -0.817,-0.533 -0.95,-0.6 l -0.05,0 -0.05,0 -0.05,0 -0.05,0 -0.1,0 -0.1,0 -0.1,0 -0.05,0 -0.05,0 -0.05,0 c -0.067,0 -0.117,0.017 -0.15,0.05 l -0.1,0 c -0.134,0.033 -0.267,0.1 -0.4,0.2 -0.034,0.033 -0.067,0.058 -0.1,0.075 -0.034,0.016 -0.067,0.041 -0.1,0.075 l -0.1,0.1 -0.05,0 -0.05,0.05 0,0.05 C -2.684,0 -2.7,0.008 -2.7,0.025 -2.7,0.042 -2.717,0.05 -2.75,0.05 l 0,0.05 c 0,0.033 -0.009,0.05 -0.025,0.05 -0.017,0 -0.025,0.017 -0.025,0.05 l -0.05,0 c 0,0.066 -0.017,0.1 -0.05,0.1 l 0,0.05 -0.05,0.1 c 0,0.033 -0.009,0.058 -0.025,0.075 C -2.992,0.542 -3,0.566 -3,0.6 L -7.25,13.45 -11.5,0.6 c -0.034,-0.034 -0.05,-0.084 -0.05,-0.15 l -0.05,0 c 0,-0.067 -0.017,-0.1 -0.05,-0.1 l 0,-0.05 -0.05,-0.1 c -0.034,-0.033 -0.05,-0.067 -0.05,-0.1 -0.034,0 -0.05,-0.017 -0.05,-0.05 L -11.85,0 l -0.05,-0.05 -0.05,-0.05 -0.1,-0.1 -0.05,0 c -0.067,-0.067 -0.134,-0.117 -0.2,-0.15 -0.1,-0.1 -0.218,-0.167 -0.35,-0.2 l -0.1,0 -0.05,0 c -0.034,-0.033 -0.067,-0.05 -0.1,-0.05 l -0.05,0 -0.05,0 -0.1,0 -0.05,0 -0.05,0 -0.1,0 -0.05,0 -0.05,0 -0.05,0 -0.05,0 -0.05,0 c -0.1,0.034 -0.218,0.083 -0.35,0.15 l -0.05,0 -0.05,0 0,0.05 -0.05,0 -0.05,0.05 c -0.034,0 -0.05,0.017 -0.05,0.05 l -0.05,0 c -0.068,0.033 -0.15,0.1 -0.25,0.2 l 0,0.05 -0.05,0 c 0,0.033 -0.018,0.05 -0.05,0.05 0,0.033 -0.017,0.05 -0.05,0.05 l 0,0.05 -0.05,0.05 -0.05,0.05 -0.15,0.3 0,0.1 c -0.034,0 -0.05,0.016 -0.05,0.05 l 0,0.05 0,0.05 0,0.05 c -0.034,0.033 -0.05,0.083 -0.05,0.15 L -19.1,34.6 c -0.067,0.466 0.05,0.891 0.35,1.275 0.3,0.383 0.7,0.608 1.2,0.675 0.466,0.066 0.891,-0.05 1.275,-0.35 0.382,-0.3 0.608,-0.684 0.675,-1.15 l 3.2,-25.9 3.45,10.5 0.05,0.05 0,0.05 c 0,0.033 0.016,0.05 0.05,0.05 l 0,0.05 0,0.05 0.1,0.1 0,0.05 0.05,0.05 0.05,0.05 c 0,0.033 0.016,0.05 0.05,0.05 l 0,0.05 0.05,0 0,0.05 0.05,0.05 c 0.033,0 0.05,0.016 0.05,0.05 l 0.05,0 0,0.05 0.05,0.05 c 0.066,0.066 0.141,0.108 0.225,0.125 0.083,0.016 0.158,0.058 0.225,0.125 l 0.1,0 0.05,0.05 0.05,0 0.05,0 0.05,0 0.05,0 0,0.05 0.05,0 0.05,0 0.05,0 0.05,0 0.05,0 0.05,0 0.05,0 0.05,0 0.05,0 0.05,0 0.05,0 0.05,-0.05 0.05,0 0.1,0 c 0.032,0 0.05,-0.008 0.05,-0.025 0,-0.017 0.016,-0.025 0.05,-0.025 l 0.1,0 c 0.066,-0.067 0.133,-0.109 0.2,-0.125 0.066,-0.017 0.132,-0.059 0.2,-0.125 l 0.05,-0.05 c 0.033,0 0.05,-0.017 0.05,-0.05 l 0.05,0 0,-0.05 0.05,0 0,-0.05 c 0.033,0 0.05,-0.017 0.05,-0.05 l 0.05,0 0,-0.05 0.05,-0.05 0.05,-0.05 c 0,-0.034 0.016,-0.05 0.05,-0.05 l 0,-0.05 0,-0.05 0.05,0 0,-0.05 0,-0.05 c 0.033,0 0.05,-0.017 0.05,-0.05 l 0.05,-0.05 0,-0.05 0,-0.05 3.5,-10.5 3.2,25.9 c 0.066,0.466 0.291,0.85 0.675,1.15 0.383,0.3 0.808,0.416 1.275,0.35 C 3.516,36.483 3.908,36.258 4.225,35.875 4.541,35.491 4.666,35.066 4.6,34.6 L 0.45,0.95 C 0.416,0.917 0.4,0.866 0.4,0.8 L 0.4,0.75 0.4,0.7 0.35,0.65 0.35,0.6 C 0.35,0.566 0.333,0.533 0.3,0.5 0.3,0.433 0.266,0.366 0.2,0.3 0.2,0.266 0.183,0.233 0.15,0.2 l 0,-0.05 -0.05,0 L 0.1,0.1 0.05,0.05 0.05,0 0,0 Z"
           style="fill:#231f20;fill-opacity:1;fill-rule:nonzero;stroke:none"
           id="path3966" />
      </g>
      <g
         id="g3968"
         transform="translate(322.2358,1320.3046)">
        <path
           d="M 0,0 C -2.333,0 -4.3,0.667 -5.9,2 -6.533,2.533 -7.158,3.342 -7.775,4.425 -8.392,5.508 -8.7,6.983 -8.7,8.85 c 0,0.5 0.175,0.917 0.525,1.25 0.35,0.333 0.775,0.5 1.275,0.5 0.466,0 0.867,-0.167 1.2,-0.5 0.333,-0.333 0.5,-0.75 0.5,-1.25 0,-1.1 0.158,-2 0.475,-2.7 C -4.408,5.45 -4,4.908 -3.5,4.525 -3,4.142 -2.442,3.875 -1.825,3.725 -1.208,3.575 -0.6,3.5 0,3.5 0.333,3.5 0.808,3.542 1.425,3.625 2.042,3.708 2.65,3.933 3.25,4.3 3.85,4.667 4.375,5.2 4.825,5.9 5.275,6.6 5.5,7.583 5.5,8.85 c 0,1.233 -0.175,2.317 -0.525,3.25 -0.35,0.933 -0.833,1.767 -1.45,2.5 -0.617,0.733 -1.325,1.408 -2.125,2.025 -0.8,0.617 -1.65,1.242 -2.55,1.875 -0.8,0.566 -1.608,1.167 -2.425,1.8 -0.817,0.633 -1.558,1.333 -2.225,2.1 -1.567,1.833 -2.367,3.95 -2.4,6.35 0,0.133 0.008,0.4 0.025,0.8 0.017,0.4 0.075,0.867 0.175,1.4 0.3,1.7 0.967,3.116 2,4.25 1.5,1.567 3.517,2.35 6.05,2.35 2.567,0 4.55,-0.783 5.95,-2.35 0.5,-0.567 0.9,-1.217 1.2,-1.95 0.3,-0.733 0.483,-1.533 0.55,-2.4 0.066,-0.6 0.092,-1.108 0.075,-1.525 C 7.808,28.908 7.783,28.667 7.75,28.6 7.65,28.167 7.533,27.783 7.4,27.45 7.233,27.183 7.033,26.95 6.8,26.75 6.566,26.55 6.217,26.483 5.75,26.55 c -0.467,0.067 -0.8,0.242 -1,0.525 -0.2,0.283 -0.333,0.575 -0.4,0.875 -0.1,0.366 -0.117,0.75 -0.05,1.15 0.067,0.466 0.067,0.917 0,1.35 C 4.233,30.816 4.133,31.225 4,31.675 3.867,32.125 3.65,32.533 3.35,32.9 2.683,33.7 1.583,34.1 0.05,34.1 -1.483,34.1 -2.633,33.667 -3.4,32.8 -3.767,32.433 -4.042,32.017 -4.225,31.55 -4.408,31.083 -4.533,30.667 -4.6,30.3 -4.7,29.833 -4.733,29.383 -4.7,28.95 l 0,-0.15 c 0,-0.833 0.133,-1.583 0.4,-2.25 0.267,-0.667 0.642,-1.283 1.125,-1.85 0.483,-0.567 1.067,-1.125 1.75,-1.675 C -0.742,22.475 0.033,21.883 0.9,21.25 1.867,20.617 2.808,19.941 3.725,19.225 4.642,18.508 5.5,17.667 6.3,16.7 8.1,14.5 9,11.883 9,8.85 9,7.316 8.742,5.992 8.225,4.875 7.708,3.758 7.025,2.842 6.175,2.125 5.325,1.408 4.358,0.875 3.275,0.525 2.191,0.175 1.1,0 0,0"
           style="fill:#231f20;fill-opacity:1;fill-rule:nonzero;stroke:none"
           id="path3970" />
      </g>
    </g>
  </g>
</svg>
