<?xml version="1.0" encoding="UTF-8" standalone="no"?>
<!-- Created with Inkscape (http://www.inkscape.org/) -->

<svg
   xmlns:dc="http://purl.org/dc/elements/1.1/"
   xmlns:cc="http://creativecommons.org/ns#"
   xmlns:rdf="http://www.w3.org/1999/02/22-rdf-syntax-ns#"
   xmlns:svg="http://www.w3.org/2000/svg"
   xmlns="http://www.w3.org/2000/svg"
   xmlns:sodipodi="http://sodipodi.sourceforge.net/DTD/sodipodi-0.dtd"
   xmlns:inkscape="http://www.inkscape.org/namespaces/inkscape"
   width="500"
   height="500"
   viewBox="0 0 500.00001 500.00001"
   id="svg5736"
   version="1.1"
   inkscape:version="0.91 r13725"
   sodipodi:docname="investdetroitlogo.svg">
  <defs
     id="defs5738">
    <clipPath
       clipPathUnits="userSpaceOnUse"
       id="clipPath4444">
      <path
         d="m 0,2500 792,0 L 792,0 0,0 0,2500 Z"
         id="path4446"
         inkscape:connector-curvature="0" />
    </clipPath>
  </defs>
  <sodipodi:namedview
     id="base"
     pagecolor="#ffffff"
     bordercolor="#666666"
     borderopacity="1.0"
     inkscape:pageopacity="0.0"
     inkscape:pageshadow="2"
     inkscape:zoom="0.35"
     inkscape:cx="-60.714286"
     inkscape:cy="520"
     inkscape:document-units="px"
     inkscape:current-layer="g4440"
     showgrid="false"
     units="px"
     inkscape:window-width="1280"
     inkscape:window-height="657"
     inkscape:window-x="-8"
     inkscape:window-y="-8"
     inkscape:window-maximized="1" />
  <metadata
     id="metadata5741">
    <rdf:RDF>
      <cc:Work
         rdf:about="">
        <dc:format>image/svg+xml</dc:format>
        <dc:type
           rdf:resource="http://purl.org/dc/dcmitype/StillImage" />
        <dc:title></dc:title>
      </cc:Work>
    </rdf:RDF>
  </metadata>
  <g
     inkscape:label="Layer 1"
     inkscape:groupmode="layer"
     id="layer1"
     transform="translate(0,-552.36216)">
    <g
       transform="matrix(1.25,0,0,-1.25,-90.451822,1466.853)"
       id="g4440">
      <g
         id="g4442"
         clip-path="url(#clipPath4444)"
         transform="matrix(4.6299083,0,0,4.6299083,-1162.4669,-2559.9006)"
         style="fill:#000000;fill-opacity:1">
        <g
           id="g4462"
           transform="translate(267.353,685.572)"
           style="fill:#000000;fill-opacity:1">
          <path
             d="m 0,0 0,0 27.676,-9.771 0.363,2.239 3.638,-5.587 -6.522,-1.379 1.325,1.842 L 0,0 Z"
             style="fill:#000000;fill-opacity:1;fill-rule:nonzero;stroke:none"
             id="path4464"
             inkscape:connector-curvature="0" />
        </g>
        <g
           id="g4466"
           transform="translate(353.0716,650.0717)"
           style="fill:#000000;fill-opacity:1">
          <path
             d="m 0,0 -28.155,9.966 -0.364,-2.235 -3.637,5.586 6.521,1.376 -1.324,-1.837 L 0,0 Z"
             style="fill:#000000;fill-opacity:1;fill-rule:nonzero;stroke:none"
             id="path4468"
             inkscape:connector-curvature="0" />
        </g>
        <g
           id="g4470"
           transform="translate(292.1209,624.8222)"
           style="fill:#000000;fill-opacity:1">
          <path
             d="m 0,0 0,0 9.97,28.152 -2.239,0.364 5.586,3.641 1.381,-6.524 -1.841,1.325 L 0,0 Z"
             style="fill:#000000;fill-opacity:1;fill-rule:nonzero;stroke:none"
             id="path4472"
             inkscape:connector-curvature="0" />
        </g>
        <g
           id="g4474"
           transform="translate(327.8244,711.0192)"
           style="fill:#000000;fill-opacity:1">
          <path
             d="m 0,0 0,0 -9.968,-28.153 2.235,-0.366 -5.587,-3.637 -1.377,6.521 1.839,-1.323 L 0,0 Z"
             style="fill:#000000;fill-opacity:1;fill-rule:nonzero;stroke:none"
             id="path4476"
             inkscape:connector-curvature="0" />
        </g>
        <g
           id="g4478"
           transform="translate(267.3553,650.067)"
           style="fill:#000000;fill-opacity:1">
          <path
             d="M 0,0 0,0 26.477,12.661 25.152,14.5 31.675,13.122 28.039,7.536 27.673,9.775 0,0 Z"
             style="fill:#000000;fill-opacity:1;fill-rule:nonzero;stroke:none"
             id="path4480"
             inkscape:connector-curvature="0" />
        </g>
        <g
           id="g4482"
           transform="translate(353.0716,685.5741)"
           style="fill:#000000;fill-opacity:1">
          <path
             d="m 0,0 -26.959,-12.86 1.326,-1.838 -6.524,1.378 3.637,5.587 0.365,-2.236 L 0,0 Z"
             style="fill:#000000;fill-opacity:1;fill-rule:nonzero;stroke:none"
             id="path4484"
             inkscape:connector-curvature="0" />
        </g>
        <g
           id="g4486"
           transform="translate(327.8254,624.6244)"
           style="fill:#000000;fill-opacity:1">
          <path
             d="m 0,0 0,0 -12.858,26.956 -1.843,-1.323 1.38,6.519 5.588,-3.633 L -9.972,28.152 0,0 Z"
             style="fill:#000000;fill-opacity:1;fill-rule:nonzero;stroke:none"
             id="path4488"
             inkscape:connector-curvature="0" />
        </g>
        <g
           id="g4490"
           transform="translate(292.1209,710.819)"
           style="fill:#000000;fill-opacity:1">
          <path
             d="m 0,0 0,0 12.858,-26.956 1.838,1.323 -1.377,-6.523 -5.585,3.64 2.235,0.363 L 0,0 Z"
             style="fill:#000000;fill-opacity:1;fill-rule:nonzero;stroke:none"
             id="path4492"
             inkscape:connector-curvature="0" />
        </g>
        <g
           id="g4494"
           transform="translate(309.9708,655.8781)"
           style="fill:#000000;fill-opacity:1">
          <path
             d="m 0,0 0,0 -1.562,-17.876 -2.209,0.517 3.77,-5.499 3.772,5.499 L 1.562,-17.876 0,0 Z"
             style="fill:#000000;fill-opacity:1;fill-rule:nonzero;stroke:none"
             id="path4496"
             inkscape:connector-curvature="0" />
        </g>
        <g
           id="g4498"
           transform="translate(309.9715,679.5659)"
           style="fill:#000000;fill-opacity:1">
          <path
             d="M 0,0 0,0 1.565,17.879 3.768,17.36 -0.001,22.857 -3.768,17.36 -1.563,17.879 0,0 Z"
             style="fill:#000000;fill-opacity:1;fill-rule:nonzero;stroke:none"
             id="path4500"
             inkscape:connector-curvature="0" />
        </g>
        <g
           id="g4502"
           transform="translate(321.8161,667.7216)"
           style="fill:#000000;fill-opacity:1">
          <path
             d="M 0,0 0,0 17.874,-1.563 17.357,-3.769 22.856,0 17.356,3.769 17.874,1.563 0,0 Z"
             style="fill:#000000;fill-opacity:1;fill-rule:nonzero;stroke:none"
             id="path4504"
             inkscape:connector-curvature="0" />
        </g>
        <g
           id="g4506"
           transform="translate(298.1275,667.7216)"
           style="fill:#000000;fill-opacity:1">
          <path
             d="M 0,0 0,0 -17.879,1.563 -17.36,3.771 -22.858,0 -17.362,-3.769 -17.88,-1.56 0,0 Z"
             style="fill:#000000;fill-opacity:1;fill-rule:nonzero;stroke:none"
             id="path4508"
             inkscape:connector-curvature="0" />
        </g>
        <g
           id="g4510"
           transform="translate(318.346,659.3458)"
           style="fill:#000000;fill-opacity:1">
          <path
             d="m 0,0 0,0 11.536,-13.746 -1.927,-1.196 6.553,-1.219 -1.222,6.554 -1.194,-1.929 L 0,0 Z"
             style="fill:#000000;fill-opacity:1;fill-rule:nonzero;stroke:none"
             id="path4512"
             inkscape:connector-curvature="0" />
        </g>
        <g
           id="g4514"
           transform="translate(301.5959,676.0972)"
           style="fill:#000000;fill-opacity:1">
          <path
             d="m 0,0 0,0 -11.534,13.747 1.925,1.192 -6.552,1.224 1.222,-6.551 1.193,1.925 L 0,0 Z"
             style="fill:#000000;fill-opacity:1;fill-rule:nonzero;stroke:none"
             id="path4516"
             inkscape:connector-curvature="0" />
        </g>
        <g
           id="g4518"
           transform="translate(318.346,676.0972)"
           style="fill:#000000;fill-opacity:1">
          <path
             d="M 0,0 0,0 13.744,11.533 14.941,9.608 16.162,16.161 9.608,14.939 11.536,13.745 0,0 Z"
             style="fill:#000000;fill-opacity:1;fill-rule:nonzero;stroke:none"
             id="path4520"
             inkscape:connector-curvature="0" />
        </g>
        <g
           id="g4522"
           transform="translate(301.5946,659.3468)"
           style="fill:#000000;fill-opacity:1">
          <path
             d="m 0,0 0,0 -13.746,-11.537 -1.193,1.929 -1.222,-6.554 6.551,1.222 -1.928,1.193 L 0,0 Z"
             style="fill:#000000;fill-opacity:1;fill-rule:nonzero;stroke:none"
             id="path4524"
             inkscape:connector-curvature="0" />
        </g>
      </g>
    </g>
  </g>
</svg>
